<svg width="48" height="48" viewBox="0 0 48 48" fill="none" xmlns="http://www.w3.org/2000/svg">
<path fill-rule="evenodd" clip-rule="evenodd" d="M24.0002 28.8002V48.0002C18.0193 47.9966 12.2553 45.76 7.83731 41.7285C3.41935 37.697 0.665856 32.1612 0.116248 26.2057C-0.43336 20.2501 1.26053 14.3039 4.86607 9.53196C8.47161 4.76005 13.729 1.50632 19.6082 0.408203L24.0002 4.8002H36.0002C39.1786 4.8002 42.2272 6.06118 44.477 8.30643C46.7267 10.5517 47.9938 13.5978 48.0002 16.7762V38.4242C47.9938 40.9661 46.9796 43.4018 45.1799 45.1969C43.3803 46.9921 40.9421 48.0002 38.4002 48.0002V43.2002C39.6732 43.2002 40.8941 42.6945 41.7943 41.7943C42.6945 40.8941 43.2002 39.6732 43.2002 38.4002C43.2002 37.1272 42.6945 35.9063 41.7943 35.0061C40.8941 34.1059 39.6732 33.6002 38.4002 33.6002H28.8002L24.0002 28.8002ZM37.2002 21.6002C38.155 21.6002 39.0706 21.2209 39.7458 20.5458C40.4209 19.8707 40.8002 18.955 40.8002 18.0002C40.8002 17.0454 40.4209 16.1297 39.7458 15.4546C39.0706 14.7795 38.155 14.4002 37.2002 14.4002C36.2454 14.4002 35.3297 14.7795 34.6546 15.4546C33.9795 16.1297 33.6002 17.0454 33.6002 18.0002C33.6002 18.955 33.9795 19.8707 34.6546 20.5458C35.3297 21.2209 36.2454 21.6002 37.2002 21.6002Z" fill="white"/>
</svg>
